<svg width="31" height="31" viewBox="0 0 31 31" fill="none" xmlns="http://www.w3.org/2000/svg">
<g clip-path="url(#clip0_93_34)">
<path d="M15.4997 2.58325C19.0091 2.58325 19.447 2.59617 20.8239 2.66075C22.1995 2.72534 23.136 2.94104 23.9601 3.26138C24.8126 3.58946 25.5308 4.03379 26.2489 4.75067C26.9057 5.39637 27.4139 6.17743 27.7382 7.0395C28.0573 7.86229 28.2743 8.80004 28.3388 10.1757C28.3995 11.5526 28.4163 11.9905 28.4163 15.4999C28.4163 19.0094 28.4034 19.4473 28.3388 20.8242C28.2743 22.1998 28.0573 23.1363 27.7382 23.9603C27.4149 24.8229 26.9065 25.6041 26.2489 26.2492C25.603 26.9057 24.822 27.4139 23.9601 27.7385C23.1373 28.0575 22.1995 28.2745 20.8239 28.3391C19.447 28.3998 19.0091 28.4166 15.4997 28.4166C11.9902 28.4166 11.5523 28.4037 10.1754 28.3391C8.7998 28.2745 7.86334 28.0575 7.03926 27.7385C6.17685 27.4149 5.39565 26.9066 4.75042 26.2492C4.09349 25.6036 3.58525 24.8225 3.26113 23.9603C2.9408 23.1375 2.72509 22.1998 2.66051 20.8242C2.5998 19.4473 2.58301 19.0094 2.58301 15.4999C2.58301 11.9905 2.59592 11.5526 2.66051 10.1757C2.72509 8.79875 2.9408 7.86358 3.26113 7.0395C3.58435 6.1769 4.09271 5.39562 4.75042 4.75067C5.39583 4.09351 6.17698 3.58524 7.03926 3.26138C7.86334 2.94104 8.79851 2.72534 10.1754 2.66075C11.5523 2.60004 11.9902 2.58325 15.4997 2.58325ZM15.4997 9.04159C13.7868 9.04159 12.1441 9.72201 10.9329 10.9332C9.72177 12.1444 9.04134 13.7871 9.04134 15.4999C9.04134 17.2128 9.72177 18.8555 10.9329 20.0666C12.1441 21.2778 13.7868 21.9583 15.4997 21.9583C17.2125 21.9583 18.8552 21.2778 20.0664 20.0666C21.2776 18.8555 21.958 17.2128 21.958 15.4999C21.958 13.7871 21.2776 12.1444 20.0664 10.9332C18.8552 9.72201 17.2125 9.04159 15.4997 9.04159ZM23.8955 8.71867C23.8955 8.29045 23.7254 7.87978 23.4226 7.57699C23.1198 7.27419 22.7091 7.10409 22.2809 7.10409C21.8527 7.10409 21.442 7.27419 21.1392 7.57699C20.8364 7.87978 20.6663 8.29045 20.6663 8.71867C20.6663 9.14688 20.8364 9.55756 21.1392 9.86035C21.442 10.1631 21.8527 10.3333 22.2809 10.3333C22.7091 10.3333 23.1198 10.1631 23.4226 9.86035C23.7254 9.55756 23.8955 9.14688 23.8955 8.71867ZM15.4997 11.6249C16.5274 11.6249 17.513 12.0332 18.2397 12.7599C18.9664 13.4866 19.3747 14.4722 19.3747 15.4999C19.3747 16.5276 18.9664 17.5133 18.2397 18.24C17.513 18.9667 16.5274 19.3749 15.4997 19.3749C14.472 19.3749 13.4863 18.9667 12.7596 18.24C12.0329 17.5133 11.6247 16.5276 11.6247 15.4999C11.6247 14.4722 12.0329 13.4866 12.7596 12.7599C13.4863 12.0332 14.472 11.6249 15.4997 11.6249Z" fill="white"/>
</g>
<defs>
<clipPath id="clip0_93_34">
<rect width="31" height="31" fill="white"/>
</clipPath>
</defs>
</svg>
