<svg width="31" height="32" viewBox="0 0 31 32" fill="none" xmlns="http://www.w3.org/2000/svg">
<g clip-path="url(#clip0_93_30)">
<path d="M28.6259 7.54124C27.6398 7.99149 26.5941 8.2872 25.5233 8.41857C26.6519 7.72181 27.4966 6.62525 27.9 5.33324C26.8408 5.9839 25.6796 6.4399 24.4693 6.68657C23.6563 5.78867 22.5788 5.19319 21.4041 4.99268C20.2295 4.79218 19.0236 4.99789 17.9739 5.57784C16.9242 6.15779 16.0895 7.07948 15.5996 8.19963C15.1097 9.31977 14.992 10.5756 15.2649 11.7719C13.117 11.6608 11.0157 11.0846 9.09756 10.0808C7.17937 9.07698 5.48714 7.66797 4.13073 5.94524C3.6506 6.7965 3.39829 7.7642 3.39964 8.74924C3.39964 10.6826 4.35289 12.3906 5.80214 13.3906C4.94449 13.3627 4.10571 13.1236 3.35573 12.6932V12.7626C3.35599 14.0502 3.78762 15.2981 4.57745 16.2946C5.36727 17.2912 6.46668 17.9752 7.68927 18.2306C6.8931 18.4533 6.05829 18.4861 5.24802 18.3266C5.59272 19.4349 6.26457 20.4042 7.16949 21.0987C8.07441 21.7933 9.1671 22.1783 10.2946 22.1999C9.17401 23.1083 7.891 23.7799 6.51886 24.1761C5.14673 24.5724 3.71239 24.6856 2.29785 24.5092C4.76713 26.1485 7.6416 27.0187 10.5774 27.0159C20.5142 27.0159 25.9483 18.5186 25.9483 11.1492C25.9483 10.9092 25.9418 10.6666 25.9315 10.4292C26.9892 9.64013 27.902 8.66259 28.6272 7.54257L28.6259 7.54124Z" fill="white"/>
</g>
<defs>
<clipPath id="clip0_93_30">
<rect width="31" height="32" fill="white"/>
</clipPath>
</defs>
</svg>
